<svg width="28" height="28" viewBox="0 0 28 28" fill="none" xmlns="http://www.w3.org/2000/svg">
<path d="M18.298 0H9.702C1.862 0 0 1.862 0 9.702V18.298C0 26.138 1.862 28 9.702 28H18.298C26.138 28 28 26.138 28 18.298V9.702C28 1.862 26.138 0 18.298 0ZM22.61 19.978H20.566C19.796 19.978 19.558 19.348 18.2 17.962C16.968 16.8 16.436 16.632 16.142 16.632C15.736 16.632 15.61 16.744 15.61 17.332V19.166C15.61 19.656 15.456 19.964 14.154 19.964C11.998 19.964 9.604 18.648 7.924 16.226C5.39 12.67 4.704 9.982 4.704 9.45C4.704 9.156 4.802 8.876 5.39 8.876H7.448C7.966 8.876 8.162 9.1 8.358 9.66C9.366 12.6 11.046 15.12 11.732 15.12C11.998 15.12 12.11 14.994 12.11 14.35V11.34C12.04 9.968 11.298 9.842 11.298 9.352C11.298 9.1 11.494 8.876 11.816 8.876H15.022C15.456 8.876 15.61 9.1 15.61 9.632V13.678C15.61 14.112 15.792 14.266 15.932 14.266C16.184 14.266 16.408 14.112 16.87 13.636C18.34 11.998 19.39 9.464 19.39 9.464C19.53 9.17 19.754 8.89 20.3 8.89H22.302C22.918 8.89 23.058 9.212 22.918 9.646C22.666 10.836 20.174 14.35 20.202 14.35C19.978 14.7 19.894 14.854 20.202 15.26C20.412 15.554 21.126 16.17 21.602 16.716C22.47 17.71 23.142 18.536 23.324 19.11C23.478 19.684 23.198 19.978 22.61 19.978Z" fill="#1C2541"/>
</svg>
