<svg width="18" height="18" viewBox="0 0 18 18" fill="none" xmlns="http://www.w3.org/2000/svg">
<path d="M12.7727 8.60224L7.14774 2.97723C7.06907 2.89857 6.96884 2.845 6.85973 2.8233C6.75061 2.8016 6.63751 2.81275 6.53473 2.85532C6.43195 2.8979 6.3441 2.97 6.2823 3.0625C6.22049 3.155 6.1875 3.26376 6.1875 3.37501V14.625C6.1875 14.7363 6.22049 14.845 6.2823 14.9375C6.34411 15.03 6.43195 15.1021 6.53473 15.1447C6.63751 15.1873 6.75061 15.1984 6.85973 15.1767C6.96884 15.155 7.06907 15.1014 7.14774 15.0228L12.7727 9.39778C12.825 9.34555 12.8664 9.28353 12.8947 9.21528C12.923 9.14703 12.9375 9.07388 12.9375 9.00001C12.9375 8.92614 12.923 8.85298 12.8947 8.78473C12.8664 8.71648 12.825 8.65447 12.7727 8.60224V8.60224Z" fill="#1C2541" fill-opacity="0.3"/>
</svg>
