<svg width="18" height="18" viewBox="0 0 18 18" fill="none" xmlns="http://www.w3.org/2000/svg">
<path d="M12.7727 8.60222L7.14774 2.97722C7.06907 2.89856 6.96884 2.84499 6.85973 2.82329C6.75061 2.80159 6.63751 2.81273 6.53473 2.85531C6.43195 2.89789 6.3441 2.96998 6.2823 3.06249C6.22049 3.15499 6.1875 3.26374 6.1875 3.37499V14.625C6.1875 14.7362 6.22049 14.845 6.2823 14.9375C6.34411 15.03 6.43195 15.1021 6.53473 15.1447C6.63751 15.1872 6.75061 15.1984 6.85973 15.1767C6.96884 15.155 7.06907 15.1014 7.14774 15.0228L12.7727 9.39777C12.825 9.34553 12.8664 9.28352 12.8947 9.21527C12.923 9.14702 12.9375 9.07387 12.9375 8.99999C12.9375 8.92612 12.923 8.85297 12.8947 8.78472C12.8664 8.71647 12.825 8.65446 12.7727 8.60222V8.60222Z" fill="#1C2541" fill-opacity="0.3"/>
</svg>
