<svg width="28" height="28" viewBox="0 0 28 28" fill="none" xmlns="http://www.w3.org/2000/svg">
<path d="M14 2.625C11.0589 2.62505 8.23223 3.76422 6.11296 5.80346C3.9937 7.8427 2.74664 10.6235 2.63344 13.5624C2.52024 16.5012 3.54971 19.3697 5.50583 21.566C7.46195 23.7622 10.1927 25.1154 13.125 25.3417V16.6251H10.5C10.2679 16.6251 10.0454 16.5329 9.88128 16.3688C9.71718 16.2047 9.625 15.9822 9.625 15.7501C9.625 15.518 9.71718 15.2955 9.88128 15.1314C10.0454 14.9673 10.2679 14.8751 10.5 14.8751H13.125V12.2501C13.1261 11.3222 13.4951 10.4325 14.1513 9.7764C14.8074 9.12025 15.6971 8.75116 16.625 8.7501H18.375C18.6071 8.7501 18.8296 8.84229 18.9937 9.00638C19.1578 9.17048 19.25 9.39304 19.25 9.6251C19.25 9.85717 19.1578 10.0797 18.9937 10.2438C18.8296 10.4079 18.6071 10.5001 18.375 10.5001H16.625C16.161 10.5006 15.7162 10.6852 15.3881 11.0133C15.0601 11.3413 14.8755 11.7861 14.875 12.2501V14.8751H17.5C17.7321 14.8751 17.9546 14.9673 18.1187 15.1314C18.2828 15.2955 18.375 15.518 18.375 15.7501C18.375 15.9822 18.2828 16.2047 18.1187 16.3688C17.9546 16.5329 17.7321 16.6251 17.5 16.6251H14.875V25.3417C17.8073 25.1154 20.538 23.7621 22.4941 21.5659C24.4502 19.3697 25.4797 16.5012 25.3665 13.5624C25.2533 10.6235 24.0063 7.84271 21.887 5.80347C19.7677 3.76423 16.941 2.62506 14 2.625V2.625Z" fill="#1C2541"/>
</svg>
