<svg width="201" height="200" viewBox="0 0 201 200" fill="none" xmlns="http://www.w3.org/2000/svg">
<rect x="0.5" width="200" height="200" rx="100" fill="#8B6BD5"/>
<path opacity="0.5" d="M39.64 56.04H50.44V70H47.8V58.38H42.28V70H39.64V56.04ZM57.702 70.24C56.9554 70.24 56.282 70.1133 55.682 69.86C55.0954 69.6067 54.5887 69.24 54.162 68.76C53.7487 68.28 53.4287 67.7067 53.202 67.04C52.9754 66.36 52.862 65.6 52.862 64.76C52.862 63.92 52.9754 63.1667 53.202 62.5C53.4287 61.8333 53.7487 61.2667 54.162 60.8C54.5887 60.32 55.0954 59.9533 55.682 59.7C56.282 59.4467 56.9554 59.32 57.702 59.32C58.4487 59.32 59.122 59.4467 59.722 59.7C60.322 59.9533 60.8287 60.32 61.242 60.8C61.6687 61.2667 61.9954 61.8333 62.222 62.5C62.4487 63.1667 62.562 63.92 62.562 64.76C62.562 65.6 62.4487 66.36 62.222 67.04C61.9954 67.7067 61.6687 68.28 61.242 68.76C60.8287 69.24 60.322 69.6067 59.722 69.86C59.122 70.1133 58.4487 70.24 57.702 70.24ZM57.702 68.18C58.382 68.18 58.9154 67.9733 59.302 67.56C59.6887 67.1467 59.882 66.54 59.882 65.74V63.8C59.882 63.0133 59.6887 62.4133 59.302 62C58.9154 61.5867 58.382 61.38 57.702 61.38C57.0354 61.38 56.5087 61.5867 56.122 62C55.7354 62.4133 55.542 63.0133 55.542 63.8V65.74C55.542 66.54 55.7354 67.1467 56.122 67.56C56.5087 67.9733 57.0354 68.18 57.702 68.18ZM68.9516 70.24C68.1782 70.24 67.4916 70.1133 66.8916 69.86C66.2916 69.6067 65.7849 69.24 65.3716 68.76C64.9716 68.28 64.6649 67.7067 64.4516 67.04C64.2382 66.36 64.1316 65.6 64.1316 64.76C64.1316 63.92 64.2382 63.1667 64.4516 62.5C64.6649 61.8333 64.9716 61.2667 65.3716 60.8C65.7849 60.32 66.2916 59.9533 66.8916 59.7C67.4916 59.4467 68.1782 59.32 68.9516 59.32C70.0049 59.32 70.8716 59.5533 71.5516 60.02C72.2449 60.4867 72.7449 61.1333 73.0516 61.96L70.9516 62.9C70.8316 62.46 70.6049 62.1 70.2716 61.82C69.9516 61.5267 69.5116 61.38 68.9516 61.38C68.2316 61.38 67.6916 61.6067 67.3316 62.06C66.9849 62.5133 66.8116 63.1067 66.8116 63.84V65.74C66.8116 66.4733 66.9849 67.0667 67.3316 67.52C67.6916 67.96 68.2316 68.18 68.9516 68.18C69.5649 68.18 70.0382 68.0267 70.3716 67.72C70.7049 67.4 70.9649 67.0067 71.1516 66.54L73.1116 67.48C72.7649 68.4 72.2382 69.0933 71.5316 69.56C70.8249 70.0133 69.9649 70.24 68.9516 70.24ZM79.2078 70.24C78.4345 70.24 77.7411 70.1133 77.1278 69.86C76.5278 69.5933 76.0145 69.2267 75.5878 68.76C75.1745 68.28 74.8545 67.7067 74.6278 67.04C74.4011 66.36 74.2878 65.6 74.2878 64.76C74.2878 63.9333 74.3945 63.1867 74.6078 62.52C74.8345 61.8533 75.1545 61.2867 75.5678 60.82C75.9811 60.34 76.4878 59.9733 77.0878 59.72C77.6878 59.4533 78.3678 59.32 79.1278 59.32C79.9411 59.32 80.6478 59.46 81.2478 59.74C81.8478 60.02 82.3411 60.4 82.7278 60.88C83.1145 61.36 83.4011 61.92 83.5878 62.56C83.7878 63.1867 83.8878 63.86 83.8878 64.58V65.42H76.9478V65.68C76.9478 66.44 77.1611 67.0533 77.5878 67.52C78.0145 67.9733 78.6478 68.2 79.4878 68.2C80.1278 68.2 80.6478 68.0667 81.0478 67.8C81.4611 67.5333 81.8278 67.1933 82.1478 66.78L83.5278 68.32C83.1011 68.92 82.5145 69.3933 81.7678 69.74C81.0345 70.0733 80.1811 70.24 79.2078 70.24ZM79.1678 61.24C78.4878 61.24 77.9478 61.4667 77.5478 61.92C77.1478 62.3733 76.9478 62.96 76.9478 63.68V63.84H81.2278V63.66C81.2278 62.94 81.0478 62.36 80.6878 61.92C80.3411 61.4667 79.8345 61.24 79.1678 61.24ZM88.1034 61.6H84.9234V59.56H93.8434V61.6H90.6634V70H88.1034V61.6ZM95.73 59.56H98.23V64.22L98.01 66.66H98.09L99.31 64.44L102.57 59.56H104.87V70H102.37V65.34L102.59 62.88H102.51L101.29 65.12L98.03 70H95.73V59.56ZM109.939 61.6H106.759V59.56H115.679V61.6H112.499V70H109.939V61.6ZM121.649 70.24C120.876 70.24 120.183 70.1133 119.569 69.86C118.969 69.5933 118.456 69.2267 118.029 68.76C117.616 68.28 117.296 67.7067 117.069 67.04C116.843 66.36 116.729 65.6 116.729 64.76C116.729 63.9333 116.836 63.1867 117.049 62.52C117.276 61.8533 117.596 61.2867 118.009 60.82C118.423 60.34 118.929 59.9733 119.529 59.72C120.129 59.4533 120.809 59.32 121.569 59.32C122.383 59.32 123.089 59.46 123.689 59.74C124.289 60.02 124.783 60.4 125.169 60.88C125.556 61.36 125.843 61.92 126.029 62.56C126.229 63.1867 126.329 63.86 126.329 64.58V65.42H119.389V65.68C119.389 66.44 119.603 67.0533 120.029 67.52C120.456 67.9733 121.089 68.2 121.929 68.2C122.569 68.2 123.089 68.0667 123.489 67.8C123.903 67.5333 124.269 67.1933 124.589 66.78L125.969 68.32C125.543 68.92 124.956 69.3933 124.209 69.74C123.476 70.0733 122.623 70.24 121.649 70.24ZM121.609 61.24C120.929 61.24 120.389 61.4667 119.989 61.92C119.589 62.3733 119.389 62.96 119.389 63.68V63.84H123.669V63.66C123.669 62.94 123.489 62.36 123.129 61.92C122.783 61.4667 122.276 61.24 121.609 61.24ZM127.362 67.96H128.722C128.855 67.76 128.975 67.52 129.082 67.24C129.202 66.96 129.302 66.62 129.382 66.22C129.462 65.8067 129.522 65.32 129.562 64.76C129.615 64.1867 129.642 63.52 129.642 62.76V59.56H137.582V70H135.022V61.6H132.082V62.88C132.082 63.8267 132.048 64.6533 131.982 65.36C131.915 66.0533 131.815 66.6533 131.682 67.16C131.562 67.6667 131.408 68.0933 131.222 68.44C131.048 68.7733 130.855 69.0467 130.642 69.26C130.335 69.5667 129.988 69.78 129.602 69.9C129.215 70.02 128.742 70.08 128.182 70.08H127.362V67.96ZM144.735 70.24C143.962 70.24 143.268 70.1133 142.655 69.86C142.055 69.5933 141.542 69.2267 141.115 68.76C140.702 68.28 140.382 67.7067 140.155 67.04C139.928 66.36 139.815 65.6 139.815 64.76C139.815 63.9333 139.922 63.1867 140.135 62.52C140.362 61.8533 140.682 61.2867 141.095 60.82C141.508 60.34 142.015 59.9733 142.615 59.72C143.215 59.4533 143.895 59.32 144.655 59.32C145.468 59.32 146.175 59.46 146.775 59.74C147.375 60.02 147.868 60.4 148.255 60.88C148.642 61.36 148.928 61.92 149.115 62.56C149.315 63.1867 149.415 63.86 149.415 64.58V65.42H142.475V65.68C142.475 66.44 142.688 67.0533 143.115 67.52C143.542 67.9733 144.175 68.2 145.015 68.2C145.655 68.2 146.175 68.0667 146.575 67.8C146.988 67.5333 147.355 67.1933 147.675 66.78L149.055 68.32C148.628 68.92 148.042 69.3933 147.295 69.74C146.562 70.0733 145.708 70.24 144.735 70.24ZM144.695 61.24C144.015 61.24 143.475 61.4667 143.075 61.92C142.675 62.3733 142.475 62.96 142.475 63.68V63.84H146.755V63.66C146.755 62.94 146.575 62.36 146.215 61.92C145.868 61.4667 145.362 61.24 144.695 61.24ZM151.668 59.56H154.168V64.22L153.948 66.66H154.028L155.248 64.44L158.508 59.56H160.808V70H158.308V65.34L158.528 62.88H158.448L157.228 65.12L153.968 70H151.668V59.56ZM156.248 58.32C155.408 58.32 154.734 58.1467 154.228 57.8C153.721 57.44 153.321 56.9333 153.028 56.28L152.608 55.34L154.648 54.54L155.308 56.46C155.414 56.5 155.554 56.5333 155.728 56.56C155.901 56.5733 156.074 56.58 156.248 56.58C156.421 56.58 156.594 56.5733 156.768 56.56C156.941 56.5333 157.081 56.5 157.188 56.46L157.848 54.54L159.888 55.34L159.468 56.28C159.174 56.9333 158.774 57.44 158.268 57.8C157.761 58.1467 157.088 58.32 156.248 58.32Z" fill="white"/>
<path d="M76.1548 107.288C75.1948 107.288 74.3388 107.136 73.5868 106.832C72.8348 106.512 72.1948 106.072 71.6668 105.512C71.1388 104.936 70.7388 104.248 70.4668 103.448C70.1948 102.632 70.0588 101.72 70.0588 100.712C70.0588 99.512 70.2348 98.384 70.5868 97.328C70.9548 96.256 71.4268 95.28 72.0028 94.4C72.5788 93.504 73.2188 92.712 73.9228 92.024C74.6428 91.32 75.3548 90.728 76.0588 90.248H80.3308C79.3388 90.952 78.4508 91.632 77.6668 92.288C76.8988 92.944 76.2188 93.608 75.6268 94.28C75.0508 94.952 74.5708 95.656 74.1868 96.392C73.8188 97.112 73.5388 97.896 73.3468 98.744L73.5388 98.792C73.6988 98.472 73.8828 98.168 74.0908 97.88C74.3148 97.576 74.5788 97.312 74.8828 97.088C75.1868 96.848 75.5388 96.664 75.9388 96.536C76.3388 96.392 76.8028 96.32 77.3308 96.32C78.0188 96.32 78.6588 96.44 79.2508 96.68C79.8588 96.92 80.3788 97.272 80.8108 97.736C81.2588 98.184 81.6028 98.728 81.8428 99.368C82.0988 100.008 82.2268 100.72 82.2268 101.504C82.2268 102.352 82.0828 103.128 81.7948 103.832C81.5068 104.536 81.0988 105.144 80.5708 105.656C80.0428 106.168 79.4028 106.568 78.6508 106.856C77.9148 107.144 77.0828 107.288 76.1548 107.288ZM76.1548 104.792C77.0348 104.792 77.7228 104.552 78.2188 104.072C78.7308 103.576 78.9868 102.872 78.9868 101.96V101.6C78.9868 100.688 78.7308 99.992 78.2188 99.512C77.7228 99.016 77.0348 98.768 76.1548 98.768C75.2588 98.768 74.5628 99.016 74.0668 99.512C73.5708 99.992 73.3228 100.688 73.3228 101.6V101.96C73.3228 102.872 73.5708 103.576 74.0668 104.072C74.5628 104.552 75.2588 104.792 76.1548 104.792ZM95.2333 97.016C96.1933 97.016 96.8973 96.824 97.3453 96.44C97.8093 96.04 98.0413 95.536 98.0413 94.928V94.76C98.0413 94.072 97.8173 93.536 97.3693 93.152C96.9373 92.752 96.3373 92.552 95.5693 92.552C94.8333 92.552 94.1773 92.728 93.6013 93.08C93.0413 93.432 92.5533 93.928 92.1373 94.568L90.1213 92.744C90.4093 92.36 90.7213 92 91.0573 91.664C91.4093 91.312 91.8093 91.016 92.2573 90.776C92.7053 90.52 93.2093 90.32 93.7693 90.176C94.3293 90.032 94.9613 89.96 95.6653 89.96C96.5133 89.96 97.2813 90.064 97.9693 90.272C98.6733 90.464 99.2733 90.752 99.7693 91.136C100.281 91.52 100.673 91.984 100.945 92.528C101.217 93.056 101.353 93.656 101.353 94.328C101.353 94.872 101.265 95.36 101.089 95.792C100.929 96.224 100.697 96.6 100.393 96.92C100.105 97.24 99.7613 97.504 99.3613 97.712C98.9773 97.904 98.5693 98.048 98.1373 98.144V98.288C98.6173 98.384 99.0733 98.536 99.5053 98.744C99.9373 98.952 100.305 99.232 100.609 99.584C100.929 99.92 101.177 100.32 101.353 100.784C101.545 101.248 101.641 101.776 101.641 102.368C101.641 103.104 101.489 103.776 101.185 104.384C100.897 104.992 100.481 105.512 99.9373 105.944C99.3933 106.376 98.7453 106.712 97.9933 106.952C97.2413 107.176 96.4013 107.288 95.4733 107.288C94.6573 107.288 93.9373 107.2 93.3133 107.024C92.6893 106.864 92.1373 106.64 91.6573 106.352C91.1933 106.064 90.7853 105.736 90.4333 105.368C90.0813 104.984 89.7773 104.584 89.5213 104.168L91.8493 102.392C92.0413 102.728 92.2493 103.04 92.4733 103.328C92.6973 103.6 92.9533 103.84 93.2413 104.048C93.5293 104.256 93.8573 104.416 94.2253 104.528C94.5933 104.64 95.0093 104.696 95.4733 104.696C96.4013 104.696 97.1133 104.472 97.6093 104.024C98.1053 103.576 98.3533 102.96 98.3533 102.176V102.008C98.3533 101.24 98.0813 100.656 97.5373 100.256C97.0093 99.856 96.2413 99.656 95.2333 99.656H93.5773V97.016H95.2333ZM110.536 107.288C109.464 107.288 108.536 107.096 107.752 106.712C106.968 106.312 106.32 105.744 105.808 105.008C105.296 104.272 104.912 103.368 104.656 102.296C104.416 101.224 104.296 100 104.296 98.624C104.296 97.264 104.416 96.048 104.656 94.976C104.912 93.888 105.296 92.976 105.808 92.24C106.32 91.504 106.968 90.944 107.752 90.56C108.536 90.16 109.464 89.96 110.536 89.96C112.664 89.96 114.232 90.72 115.24 92.24C116.264 93.76 116.776 95.888 116.776 98.624C116.776 101.36 116.264 103.488 115.24 105.008C114.232 106.528 112.664 107.288 110.536 107.288ZM110.536 104.624C111.608 104.624 112.352 104.224 112.768 103.424C113.2 102.608 113.416 101.512 113.416 100.136V97.112C113.416 95.736 113.2 94.648 112.768 93.848C112.352 93.032 111.608 92.624 110.536 92.624C109.464 92.624 108.712 93.032 108.28 93.848C107.864 94.648 107.656 95.736 107.656 97.112V100.136C107.656 101.512 107.864 102.608 108.28 103.424C108.712 104.224 109.464 104.624 110.536 104.624ZM130.087 92.984H122.551L122.167 98.6H122.335C122.511 98.248 122.703 97.92 122.911 97.616C123.119 97.312 123.359 97.056 123.631 96.848C123.903 96.64 124.215 96.48 124.567 96.368C124.935 96.24 125.375 96.176 125.887 96.176C126.607 96.176 127.279 96.296 127.903 96.536C128.527 96.776 129.063 97.128 129.511 97.592C129.975 98.04 130.335 98.592 130.591 99.248C130.863 99.904 130.999 100.648 130.999 101.48C130.999 102.328 130.863 103.104 130.591 103.808C130.319 104.512 129.919 105.128 129.391 105.656C128.863 106.168 128.215 106.568 127.447 106.856C126.679 107.144 125.799 107.288 124.807 107.288C124.039 107.288 123.351 107.2 122.743 107.024C122.135 106.864 121.599 106.64 121.135 106.352C120.671 106.064 120.271 105.736 119.935 105.368C119.599 104.984 119.303 104.584 119.047 104.168L121.351 102.392C121.543 102.712 121.743 103.016 121.951 103.304C122.159 103.576 122.399 103.816 122.671 104.024C122.959 104.232 123.271 104.4 123.607 104.528C123.959 104.64 124.367 104.696 124.831 104.696C125.775 104.696 126.487 104.432 126.967 103.904C127.463 103.376 127.711 102.656 127.711 101.744V101.552C127.711 100.688 127.463 100.008 126.967 99.512C126.471 99.016 125.783 98.768 124.903 98.768C124.215 98.768 123.655 98.904 123.223 99.176C122.791 99.432 122.447 99.712 122.191 100.016L119.599 99.656L120.223 90.248H130.087V92.984Z" fill="white"/>
<path d="M61.1686 132.6H62.7086L63.0726 131.704L59.5446 124.228H61.2246L63.0166 128.078L63.7866 129.884H63.8426L64.5006 128.05L66.0266 124.228H67.6086L64.1786 132.698C64.076 132.95 63.9686 133.16 63.8566 133.328C63.7446 133.496 63.614 133.631 63.4646 133.734C63.3153 133.827 63.138 133.897 62.9326 133.944C62.7366 133.981 62.4986 134 62.2186 134H61.1686V132.6ZM68.3147 126.72H69.8407V129.646H72.9767V126.72H74.5027V134H72.9767V130.892H69.8407V134H68.3147V126.72ZM76.6818 126.72H78.1798V130.276L78.0398 131.998H78.0958L78.9638 130.444L81.4838 126.72H82.8698V134H81.3718V130.444L81.5118 128.722H81.4558L80.5878 130.276L78.0678 134H76.6818V126.72ZM85.049 126.72H86.575V129.66H87.863L89.067 127.63C89.2724 127.285 89.4777 127.047 89.683 126.916C89.8884 126.785 90.1497 126.72 90.467 126.72H91.209V127.966H90.397L89.473 129.506C89.333 129.749 89.207 129.917 89.095 130.01C88.9924 130.103 88.8524 130.173 88.675 130.22V130.276C88.8617 130.313 89.025 130.383 89.165 130.486C89.305 130.579 89.4404 130.747 89.571 130.99L90.551 132.754H91.349V134H90.481C90.173 134 89.907 133.93 89.683 133.79C89.4684 133.65 89.263 133.403 89.067 133.048L87.863 130.892H86.575V134H85.049V126.72ZM98.2033 134C97.802 134 97.494 133.888 97.2793 133.664C97.0647 133.431 96.934 133.137 96.8873 132.782H96.8173C96.6773 133.239 96.4207 133.585 96.0473 133.818C95.674 134.051 95.2213 134.168 94.6893 134.168C93.9333 134.168 93.35 133.972 92.9393 133.58C92.538 133.188 92.3373 132.661 92.3373 131.998C92.3373 131.27 92.5987 130.724 93.1213 130.36C93.6533 129.996 94.428 129.814 95.4453 129.814H96.7613V129.198C96.7613 128.75 96.64 128.405 96.3973 128.162C96.1547 127.919 95.7767 127.798 95.2633 127.798C94.834 127.798 94.484 127.891 94.2133 128.078C93.9427 128.265 93.714 128.503 93.5273 128.792L92.6173 127.966C92.86 127.555 93.2007 127.219 93.6393 126.958C94.078 126.687 94.652 126.552 95.3613 126.552C96.304 126.552 97.0273 126.771 97.5313 127.21C98.0353 127.649 98.2873 128.279 98.2873 129.1V132.754H99.0573V134H98.2033ZM95.1233 133.006C95.5993 133.006 95.9913 132.903 96.2993 132.698C96.6073 132.483 96.7613 132.199 96.7613 131.844V130.794H95.4733C94.4187 130.794 93.8913 131.121 93.8913 131.774V132.026C93.8913 132.353 93.9987 132.6 94.2133 132.768C94.4373 132.927 94.7407 133.006 95.1233 133.006ZM99.697 132.754H100.649C100.761 132.605 100.859 132.427 100.943 132.222C101.027 132.007 101.097 131.746 101.153 131.438C101.209 131.13 101.251 130.771 101.279 130.36C101.316 129.94 101.335 129.45 101.335 128.89V126.72H106.627V134H105.101V127.966H102.805V128.96C102.805 129.632 102.777 130.22 102.721 130.724C102.674 131.228 102.604 131.662 102.511 132.026C102.427 132.39 102.32 132.693 102.189 132.936C102.068 133.169 101.937 133.356 101.797 133.496C101.601 133.692 101.377 133.832 101.125 133.916C100.873 134 100.57 134.042 100.215 134.042H99.697V132.754ZM108.824 126.72H110.35V129.156H112.352C113.08 129.156 113.668 129.371 114.116 129.8C114.574 130.22 114.802 130.813 114.802 131.578C114.802 132.353 114.578 132.95 114.13 133.37C113.682 133.79 113.094 134 112.366 134H108.824V126.72ZM112.072 132.81C112.427 132.81 112.707 132.735 112.912 132.586C113.118 132.427 113.22 132.185 113.22 131.858V131.284C113.22 130.957 113.118 130.719 112.912 130.57C112.707 130.421 112.427 130.346 112.072 130.346H110.35V132.81H112.072ZM116.358 126.72H117.884V129.646H121.02V126.72H122.546V134H121.02V130.892H117.884V134H116.358V126.72ZM124.725 126.72H126.251V129.156H128.113C128.477 129.156 128.808 129.212 129.107 129.324C129.405 129.427 129.662 129.585 129.877 129.8C130.091 130.005 130.259 130.257 130.381 130.556C130.502 130.855 130.563 131.195 130.563 131.578C130.563 132.353 130.339 132.95 129.891 133.37C129.443 133.79 128.855 134 128.127 134H124.725V126.72ZM127.833 132.81C128.187 132.81 128.467 132.735 128.673 132.586C128.878 132.427 128.981 132.185 128.981 131.858V131.284C128.981 130.957 128.878 130.719 128.673 130.57C128.467 130.421 128.187 130.346 127.833 130.346H126.251V132.81H127.833ZM131.655 126.72H133.181V134H131.655V126.72ZM134.55 134L137.112 130.318L134.62 126.72H136.384L138.022 129.254H138.064L139.744 126.72H141.368L138.876 130.304L141.41 134H139.646L137.966 131.354H137.924L136.174 134H134.55ZM59.2981 140.72H65.2761V148H63.7501V141.966H60.8241V148H59.2981V140.72ZM70.3162 148.168C69.8122 148.168 69.3502 148.079 68.9302 147.902C68.5195 147.725 68.1695 147.473 67.8802 147.146C67.5908 146.81 67.3668 146.409 67.2082 145.942C67.0495 145.466 66.9702 144.939 66.9702 144.36C66.9702 143.781 67.0495 143.259 67.2082 142.792C67.3668 142.316 67.5908 141.915 67.8802 141.588C68.1695 141.252 68.5195 140.995 68.9302 140.818C69.3502 140.641 69.8122 140.552 70.3162 140.552C70.8202 140.552 71.2775 140.641 71.6882 140.818C72.1082 140.995 72.4628 141.252 72.7522 141.588C73.0415 141.915 73.2655 142.316 73.4242 142.792C73.5828 143.259 73.6622 143.781 73.6622 144.36C73.6622 144.939 73.5828 145.466 73.4242 145.942C73.2655 146.409 73.0415 146.81 72.7522 147.146C72.4628 147.473 72.1082 147.725 71.6882 147.902C71.2775 148.079 70.8202 148.168 70.3162 148.168ZM70.3162 146.908C70.8388 146.908 71.2588 146.749 71.5762 146.432C71.8935 146.105 72.0522 145.62 72.0522 144.976V143.744C72.0522 143.1 71.8935 142.619 71.5762 142.302C71.2588 141.975 70.8388 141.812 70.3162 141.812C69.7935 141.812 69.3735 141.975 69.0562 142.302C68.7388 142.619 68.5802 143.1 68.5802 143.744V144.976C68.5802 145.62 68.7388 146.105 69.0562 146.432C69.3735 146.749 69.7935 146.908 70.3162 146.908ZM78.1765 148.168C77.6538 148.168 77.1872 148.079 76.7765 147.902C76.3658 147.725 76.0205 147.473 75.7405 147.146C75.4605 146.81 75.2458 146.409 75.0965 145.942C74.9472 145.466 74.8725 144.939 74.8725 144.36C74.8725 143.781 74.9472 143.259 75.0965 142.792C75.2458 142.316 75.4605 141.915 75.7405 141.588C76.0205 141.252 76.3658 140.995 76.7765 140.818C77.1872 140.641 77.6538 140.552 78.1765 140.552C78.9045 140.552 79.5018 140.715 79.9685 141.042C80.4352 141.369 80.7758 141.803 80.9905 142.344L79.7305 142.932C79.6278 142.596 79.4458 142.33 79.1845 142.134C78.9325 141.929 78.5965 141.826 78.1765 141.826C77.6165 141.826 77.1918 142.003 76.9025 142.358C76.6225 142.703 76.4825 143.156 76.4825 143.716V145.018C76.4825 145.578 76.6225 146.035 76.9025 146.39C77.1918 146.735 77.6165 146.908 78.1765 146.908C78.6245 146.908 78.9792 146.801 79.2405 146.586C79.5112 146.362 79.7258 146.068 79.8845 145.704L81.0465 146.32C80.8038 146.917 80.4398 147.375 79.9545 147.692C79.4692 148.009 78.8765 148.168 78.1765 148.168ZM85.2732 148.168C84.7505 148.168 84.2839 148.079 83.8732 147.902C83.4625 147.725 83.1125 147.473 82.8232 147.146C82.5339 146.81 82.3099 146.409 82.1512 145.942C82.0019 145.466 81.9272 144.939 81.9272 144.36C81.9272 143.781 82.0019 143.259 82.1512 142.792C82.3099 142.316 82.5339 141.915 82.8232 141.588C83.1125 141.252 83.4625 140.995 83.8732 140.818C84.2839 140.641 84.7505 140.552 85.2732 140.552C85.8052 140.552 86.2719 140.645 86.6732 140.832C87.0839 141.019 87.4245 141.28 87.6952 141.616C87.9659 141.943 88.1665 142.325 88.2972 142.764C88.4372 143.203 88.5072 143.674 88.5072 144.178V144.752H83.5092V144.99C83.5092 145.55 83.6725 146.012 83.9992 146.376C84.3352 146.731 84.8112 146.908 85.4272 146.908C85.8752 146.908 86.2532 146.81 86.5612 146.614C86.8692 146.418 87.1305 146.152 87.3452 145.816L88.2412 146.698C87.9705 147.146 87.5785 147.505 87.0652 147.776C86.5519 148.037 85.9545 148.168 85.2732 148.168ZM85.2732 141.742C85.0119 141.742 84.7692 141.789 84.5452 141.882C84.3305 141.975 84.1439 142.106 83.9852 142.274C83.8359 142.442 83.7192 142.643 83.6352 142.876C83.5512 143.109 83.5092 143.366 83.5092 143.646V143.744H86.8972V143.604C86.8972 143.044 86.7525 142.596 86.4632 142.26C86.1739 141.915 85.7772 141.742 85.2732 141.742ZM91.5718 141.966H89.2478V140.72H95.4218V141.966H93.0978V148H91.5718V141.966ZM96.8 140.72H98.298V144.276L98.158 145.998H98.214L99.082 144.444L101.602 140.72H102.988V148H101.49V144.444L101.63 142.722H101.574L100.706 144.276L98.186 148H96.8V140.72ZM106.679 141.966H104.355V140.72H110.529V141.966H108.205V148H106.679V141.966ZM114.627 148.168C114.104 148.168 113.637 148.079 113.227 147.902C112.816 147.725 112.466 147.473 112.177 147.146C111.887 146.81 111.663 146.409 111.505 145.942C111.355 145.466 111.281 144.939 111.281 144.36C111.281 143.781 111.355 143.259 111.505 142.792C111.663 142.316 111.887 141.915 112.177 141.588C112.466 141.252 112.816 140.995 113.227 140.818C113.637 140.641 114.104 140.552 114.627 140.552C115.159 140.552 115.625 140.645 116.027 140.832C116.437 141.019 116.778 141.28 117.049 141.616C117.319 141.943 117.52 142.325 117.651 142.764C117.791 143.203 117.861 143.674 117.861 144.178V144.752H112.863V144.99C112.863 145.55 113.026 146.012 113.353 146.376C113.689 146.731 114.165 146.908 114.781 146.908C115.229 146.908 115.607 146.81 115.915 146.614C116.223 146.418 116.484 146.152 116.699 145.816L117.595 146.698C117.324 147.146 116.932 147.505 116.419 147.776C115.905 148.037 115.308 148.168 114.627 148.168ZM114.627 141.742C114.365 141.742 114.123 141.789 113.899 141.882C113.684 141.975 113.497 142.106 113.339 142.274C113.189 142.442 113.073 142.643 112.989 142.876C112.905 143.109 112.863 143.366 112.863 143.646V143.744H116.251V143.604C116.251 143.044 116.106 142.596 115.817 142.26C115.527 141.915 115.131 141.742 114.627 141.742ZM118.612 146.754H119.564C119.676 146.605 119.774 146.427 119.858 146.222C119.942 146.007 120.012 145.746 120.068 145.438C120.124 145.13 120.166 144.771 120.194 144.36C120.231 143.94 120.25 143.45 120.25 142.89V140.72H125.542V148H124.016V141.966H121.72V142.96C121.72 143.632 121.692 144.22 121.636 144.724C121.589 145.228 121.519 145.662 121.426 146.026C121.342 146.39 121.235 146.693 121.104 146.936C120.983 147.169 120.852 147.356 120.712 147.496C120.516 147.692 120.292 147.832 120.04 147.916C119.788 148 119.485 148.042 119.13 148.042H118.612V146.754ZM130.595 148.168C130.073 148.168 129.606 148.079 129.195 147.902C128.785 147.725 128.435 147.473 128.145 147.146C127.856 146.81 127.632 146.409 127.473 145.942C127.324 145.466 127.249 144.939 127.249 144.36C127.249 143.781 127.324 143.259 127.473 142.792C127.632 142.316 127.856 141.915 128.145 141.588C128.435 141.252 128.785 140.995 129.195 140.818C129.606 140.641 130.073 140.552 130.595 140.552C131.127 140.552 131.594 140.645 131.995 140.832C132.406 141.019 132.747 141.28 133.017 141.616C133.288 141.943 133.489 142.325 133.619 142.764C133.759 143.203 133.829 143.674 133.829 144.178V144.752H128.831V144.99C128.831 145.55 128.995 146.012 129.321 146.376C129.657 146.731 130.133 146.908 130.749 146.908C131.197 146.908 131.575 146.81 131.883 146.614C132.191 146.418 132.453 146.152 132.667 145.816L133.563 146.698C133.293 147.146 132.901 147.505 132.387 147.776C131.874 148.037 131.277 148.168 130.595 148.168ZM130.595 141.742C130.334 141.742 130.091 141.789 129.867 141.882C129.653 141.975 129.466 142.106 129.307 142.274C129.158 142.442 129.041 142.643 128.957 142.876C128.873 143.109 128.831 143.366 128.831 143.646V143.744H132.219V143.604C132.219 143.044 132.075 142.596 131.785 142.26C131.496 141.915 131.099 141.742 130.595 141.742ZM135.519 140.72H137.017V144.276L136.877 145.998H136.933L137.801 144.444L140.321 140.72H141.707V148H140.209V144.444L140.349 142.722H140.293L139.425 144.276L136.905 148H135.519V140.72ZM138.627 139.754C138.067 139.754 137.619 139.642 137.283 139.418C136.956 139.185 136.695 138.867 136.499 138.466L136.219 137.85L137.465 137.346L137.941 138.606C138.034 138.634 138.141 138.657 138.263 138.676C138.393 138.695 138.515 138.704 138.627 138.704C138.739 138.704 138.855 138.695 138.977 138.676C139.107 138.657 139.219 138.634 139.313 138.606L139.789 137.346L141.035 137.85L140.755 138.466C140.559 138.867 140.293 139.185 139.957 139.418C139.63 139.642 139.187 139.754 138.627 139.754Z" fill="white"/>
</svg>
