<svg width="217" height="216" viewBox="0 0 217 216" fill="none" xmlns="http://www.w3.org/2000/svg">
<path opacity="0.5" d="M86.7836 67.1H80.9636V73H78.3236V59.04H80.9636V64.76H86.7836V59.04H89.4236V73H86.7836V67.1ZM96.6786 73.24C95.9319 73.24 95.2586 73.1133 94.6586 72.86C94.0719 72.6067 93.5653 72.24 93.1386 71.76C92.7253 71.28 92.4053 70.7067 92.1786 70.04C91.9519 69.36 91.8386 68.6 91.8386 67.76C91.8386 66.92 91.9519 66.1667 92.1786 65.5C92.4053 64.8333 92.7253 64.2667 93.1386 63.8C93.5653 63.32 94.0719 62.9533 94.6586 62.7C95.2586 62.4467 95.9319 62.32 96.6786 62.32C97.4253 62.32 98.0986 62.4467 98.6986 62.7C99.2986 62.9533 99.8053 63.32 100.219 63.8C100.645 64.2667 100.972 64.8333 101.199 65.5C101.425 66.1667 101.539 66.92 101.539 67.76C101.539 68.6 101.425 69.36 101.199 70.04C100.972 70.7067 100.645 71.28 100.219 71.76C99.8053 72.24 99.2986 72.6067 98.6986 72.86C98.0986 73.1133 97.4253 73.24 96.6786 73.24ZM96.6786 71.18C97.3586 71.18 97.8919 70.9733 98.2786 70.56C98.6653 70.1467 98.8586 69.54 98.8586 68.74V66.8C98.8586 66.0133 98.6653 65.4133 98.2786 65C97.8919 64.5867 97.3586 64.38 96.6786 64.38C96.0119 64.38 95.4853 64.5867 95.0986 65C94.7119 65.4133 94.5186 66.0133 94.5186 66.8V68.74C94.5186 69.54 94.7119 70.1467 95.0986 70.56C95.4853 70.9733 96.0119 71.18 96.6786 71.18ZM103.808 62.56H109.548C110.481 62.56 111.195 62.8 111.688 63.28C112.181 63.7467 112.428 64.38 112.428 65.18C112.428 66.5 111.708 67.26 110.268 67.46V67.54C111.121 67.62 111.761 67.8667 112.188 68.28C112.615 68.6933 112.828 69.2467 112.828 69.94C112.828 70.8467 112.548 71.5867 111.988 72.16C111.428 72.72 110.648 73 109.648 73H103.808V62.56ZM109.128 71.14C109.475 71.14 109.741 71.0533 109.928 70.88C110.115 70.6933 110.208 70.4333 110.208 70.1V69.54C110.208 69.2067 110.115 68.9533 109.928 68.78C109.741 68.5933 109.475 68.5 109.128 68.5H106.308V71.14H109.128ZM108.828 66.88C109.135 66.88 109.375 66.7933 109.548 66.62C109.735 66.4467 109.828 66.2067 109.828 65.9V65.4C109.828 65.0933 109.735 64.8533 109.548 64.68C109.375 64.5067 109.135 64.42 108.828 64.42H106.308V66.88H108.828ZM115.234 62.56H117.794V65.86H120.394C120.901 65.86 121.367 65.94 121.794 66.1C122.234 66.26 122.607 66.4933 122.914 66.8C123.234 67.0933 123.481 67.46 123.654 67.9C123.841 68.34 123.934 68.8467 123.934 69.42C123.934 69.9933 123.847 70.5067 123.674 70.96C123.501 71.4 123.254 71.7733 122.934 72.08C122.627 72.3733 122.254 72.6 121.814 72.76C121.387 72.92 120.914 73 120.394 73H115.234V62.56ZM119.874 71.1C120.327 71.1 120.681 70.9933 120.934 70.78C121.201 70.5667 121.334 70.2467 121.334 69.82V69.04C121.334 68.6133 121.201 68.2933 120.934 68.08C120.681 67.8667 120.327 67.76 119.874 67.76H117.794V71.1H119.874ZM125.394 62.56H127.954V73H125.394V62.56ZM129.818 73L133.378 67.7L129.898 62.56H132.818L134.978 66.02H135.058L137.198 62.56H139.918L136.378 67.74L139.938 73H137.018L134.818 69.4H134.738L132.538 73H129.818ZM37.1187 86.56H45.9587V97H43.3987V88.6H39.6787V97H37.1187V86.56ZM53.0555 97.24C52.3089 97.24 51.6355 97.1133 51.0355 96.86C50.4489 96.6067 49.9422 96.24 49.5155 95.76C49.1022 95.28 48.7822 94.7067 48.5555 94.04C48.3289 93.36 48.2155 92.6 48.2155 91.76C48.2155 90.92 48.3289 90.1667 48.5555 89.5C48.7822 88.8333 49.1022 88.2667 49.5155 87.8C49.9422 87.32 50.4489 86.9533 51.0355 86.7C51.6355 86.4467 52.3089 86.32 53.0555 86.32C53.8022 86.32 54.4755 86.4467 55.0755 86.7C55.6755 86.9533 56.1822 87.32 56.5955 87.8C57.0222 88.2667 57.3489 88.8333 57.5755 89.5C57.8022 90.1667 57.9155 90.92 57.9155 91.76C57.9155 92.6 57.8022 93.36 57.5755 94.04C57.3489 94.7067 57.0222 95.28 56.5955 95.76C56.1822 96.24 55.6755 96.6067 55.0755 96.86C54.4755 97.1133 53.8022 97.24 53.0555 97.24ZM53.0555 95.18C53.7355 95.18 54.2689 94.9733 54.6555 94.56C55.0422 94.1467 55.2355 93.54 55.2355 92.74V90.8C55.2355 90.0133 55.0422 89.4133 54.6555 89C54.2689 88.5867 53.7355 88.38 53.0555 88.38C52.3889 88.38 51.8622 88.5867 51.4755 89C51.0889 89.4133 50.8955 90.0133 50.8955 90.8V92.74C50.8955 93.54 51.0889 94.1467 51.4755 94.56C51.8622 94.9733 52.3889 95.18 53.0555 95.18ZM58.8284 94.96H60.1884C60.3217 94.76 60.4417 94.52 60.5484 94.24C60.6684 93.96 60.7684 93.62 60.8484 93.22C60.9284 92.8067 60.9884 92.32 61.0284 91.76C61.0817 91.1867 61.1084 90.52 61.1084 89.76V86.56H69.0484V97H66.4884V88.6H63.5484V89.88C63.5484 90.8267 63.515 91.6533 63.4484 92.36C63.3817 93.0533 63.2817 93.6533 63.1484 94.16C63.0284 94.6667 62.875 95.0933 62.6884 95.44C62.515 95.7733 62.3217 96.0467 62.1084 96.26C61.8017 96.5667 61.455 96.78 61.0684 96.9C60.6817 97.02 60.2084 97.08 59.6484 97.08H58.8284V94.96ZM71.982 86.56H74.542V89.86H77.342C77.862 89.86 78.3353 89.94 78.762 90.1C79.202 90.26 79.5753 90.4933 79.882 90.8C80.202 91.0933 80.4486 91.46 80.622 91.9C80.8086 92.34 80.902 92.8467 80.902 93.42C80.902 93.9933 80.8086 94.5067 80.622 94.96C80.4486 95.4 80.202 95.7733 79.882 96.08C79.5753 96.3733 79.202 96.6 78.762 96.76C78.3353 96.92 77.8686 97 77.362 97H71.982V86.56ZM76.842 95.1C77.2953 95.1 77.6486 94.9933 77.902 94.78C78.1686 94.5667 78.302 94.2467 78.302 93.82V93.04C78.302 92.6133 78.1686 92.2933 77.902 92.08C77.6486 91.8667 77.2953 91.76 76.842 91.76H74.542V95.1H76.842ZM86.3985 97.24C85.3585 97.24 84.4918 97.0733 83.7985 96.74C83.1052 96.4067 82.4918 95.9267 81.9585 95.3L83.5585 93.78C83.9052 94.2333 84.3185 94.58 84.7985 94.82C85.2785 95.06 85.8185 95.18 86.4185 95.18C87.0852 95.18 87.5785 95.0667 87.8985 94.84C88.2318 94.6 88.3985 94.28 88.3985 93.88V93.66C88.3985 93.2867 88.2718 93.0133 88.0185 92.84C87.7785 92.6533 87.4252 92.56 86.9585 92.56H84.6785V90.78H86.7185C87.6652 90.78 88.1385 90.42 88.1385 89.7V89.5C88.1385 89.1533 87.9918 88.88 87.6985 88.68C87.4185 88.48 86.9652 88.38 86.3385 88.38C85.7518 88.38 85.2385 88.5 84.7985 88.74C84.3585 88.9667 84.0052 89.2867 83.7385 89.7L82.1785 88.32C82.6452 87.68 83.2318 87.1867 83.9385 86.84C84.6452 86.4933 85.5052 86.32 86.5185 86.32C87.9452 86.32 89.0052 86.5867 89.6985 87.12C90.4052 87.64 90.7585 88.32 90.7585 89.16C90.7585 90.48 90.0385 91.2467 88.5985 91.46V91.56C89.3585 91.64 89.9452 91.8867 90.3585 92.3C90.7852 92.7133 90.9985 93.2533 90.9985 93.92C90.9985 94.96 90.5918 95.7733 89.7785 96.36C88.9652 96.9467 87.8385 97.24 86.3985 97.24ZM97.5477 97.24C96.8011 97.24 96.1277 97.1133 95.5277 96.86C94.9411 96.6067 94.4344 96.24 94.0077 95.76C93.5944 95.28 93.2744 94.7067 93.0477 94.04C92.8211 93.36 92.7077 92.6 92.7077 91.76C92.7077 90.92 92.8211 90.1667 93.0477 89.5C93.2744 88.8333 93.5944 88.2667 94.0077 87.8C94.4344 87.32 94.9411 86.9533 95.5277 86.7C96.1277 86.4467 96.8011 86.32 97.5477 86.32C98.2944 86.32 98.9677 86.4467 99.5677 86.7C100.168 86.9533 100.674 87.32 101.088 87.8C101.514 88.2667 101.841 88.8333 102.068 89.5C102.294 90.1667 102.408 90.92 102.408 91.76C102.408 92.6 102.294 93.36 102.068 94.04C101.841 94.7067 101.514 95.28 101.088 95.76C100.674 96.24 100.168 96.6067 99.5677 96.86C98.9677 97.1133 98.2944 97.24 97.5477 97.24ZM97.5477 95.18C98.2277 95.18 98.7611 94.9733 99.1477 94.56C99.5344 94.1467 99.7277 93.54 99.7277 92.74V90.8C99.7277 90.0133 99.5344 89.4133 99.1477 89C98.7611 88.5867 98.2277 88.38 97.5477 88.38C96.8811 88.38 96.3544 88.5867 95.9677 89C95.5811 89.4133 95.3877 90.0133 95.3877 90.8V92.74C95.3877 93.54 95.5811 94.1467 95.9677 94.56C96.3544 94.9733 96.8811 95.18 97.5477 95.18ZM104.677 86.56H110.417C111.351 86.56 112.064 86.8 112.557 87.28C113.051 87.7467 113.297 88.38 113.297 89.18C113.297 90.5 112.577 91.26 111.137 91.46V91.54C111.991 91.62 112.631 91.8667 113.057 92.28C113.484 92.6933 113.697 93.2467 113.697 93.94C113.697 94.8467 113.417 95.5867 112.857 96.16C112.297 96.72 111.517 97 110.517 97H104.677V86.56ZM109.997 95.14C110.344 95.14 110.611 95.0533 110.797 94.88C110.984 94.6933 111.077 94.4333 111.077 94.1V93.54C111.077 93.2067 110.984 92.9533 110.797 92.78C110.611 92.5933 110.344 92.5 109.997 92.5H107.177V95.14H109.997ZM109.697 90.88C110.004 90.88 110.244 90.7933 110.417 90.62C110.604 90.4467 110.697 90.2067 110.697 89.9V89.4C110.697 89.0933 110.604 88.8533 110.417 88.68C110.244 88.5067 110.004 88.42 109.697 88.42H107.177V90.88H109.697ZM123.764 97C123.204 97 122.757 96.84 122.424 96.52C122.104 96.1867 121.904 95.7467 121.824 95.2H121.704C121.53 95.88 121.177 96.3933 120.644 96.74C120.11 97.0733 119.45 97.24 118.664 97.24C117.597 97.24 116.777 96.96 116.204 96.4C115.63 95.84 115.344 95.0933 115.344 94.16C115.344 93.08 115.73 92.28 116.504 91.76C117.277 91.2267 118.377 90.96 119.804 90.96H121.584V90.2C121.584 89.6133 121.43 89.16 121.124 88.84C120.817 88.52 120.324 88.36 119.644 88.36C119.044 88.36 118.557 88.4933 118.184 88.76C117.824 89.0133 117.517 89.32 117.264 89.68L115.744 88.32C116.13 87.72 116.644 87.24 117.284 86.88C117.924 86.5067 118.77 86.32 119.824 86.32C121.237 86.32 122.31 86.64 123.044 87.28C123.777 87.92 124.144 88.84 124.144 90.04V94.96H125.184V97H123.764ZM119.524 95.38C120.097 95.38 120.584 95.2533 120.984 95C121.384 94.7467 121.584 94.3733 121.584 93.88V92.5H119.944C118.61 92.5 117.944 92.9267 117.944 93.78V94.12C117.944 94.5467 118.077 94.8667 118.344 95.08C118.624 95.28 119.017 95.38 119.524 95.38ZM129.004 88.6H125.824V86.56H134.744V88.6H131.564V97H129.004V88.6ZM140.714 97.24C139.94 97.24 139.247 97.1133 138.634 96.86C138.034 96.5933 137.52 96.2267 137.094 95.76C136.68 95.28 136.36 94.7067 136.134 94.04C135.907 93.36 135.794 92.6 135.794 91.76C135.794 90.9333 135.9 90.1867 136.114 89.52C136.34 88.8533 136.66 88.2867 137.074 87.82C137.487 87.34 137.994 86.9733 138.594 86.72C139.194 86.4533 139.874 86.32 140.634 86.32C141.447 86.32 142.154 86.46 142.754 86.74C143.354 87.02 143.847 87.4 144.234 87.88C144.62 88.36 144.907 88.92 145.094 89.56C145.294 90.1867 145.394 90.86 145.394 91.58V92.42H138.454V92.68C138.454 93.44 138.667 94.0533 139.094 94.52C139.52 94.9733 140.154 95.2 140.994 95.2C141.634 95.2 142.154 95.0667 142.554 94.8C142.967 94.5333 143.334 94.1933 143.654 93.78L145.034 95.32C144.607 95.92 144.02 96.3933 143.274 96.74C142.54 97.0733 141.687 97.24 140.714 97.24ZM140.674 88.24C139.994 88.24 139.454 88.4667 139.054 88.92C138.654 89.3733 138.454 89.96 138.454 90.68V90.84H142.734V90.66C142.734 89.94 142.554 89.36 142.194 88.92C141.847 88.4667 141.34 88.24 140.674 88.24ZM146.426 94.96H147.786C147.919 94.76 148.039 94.52 148.146 94.24C148.266 93.96 148.366 93.62 148.446 93.22C148.526 92.8067 148.586 92.32 148.626 91.76C148.679 91.1867 148.706 90.52 148.706 89.76V86.56H156.646V97H154.086V88.6H151.146V89.88C151.146 90.8267 151.113 91.6533 151.046 92.36C150.979 93.0533 150.879 93.6533 150.746 94.16C150.626 94.6667 150.473 95.0933 150.286 95.44C150.113 95.7733 149.919 96.0467 149.706 96.26C149.399 96.5667 149.053 96.78 148.666 96.9C148.279 97.02 147.806 97.08 147.246 97.08H146.426V94.96ZM163.8 97.24C163.026 97.24 162.333 97.1133 161.72 96.86C161.12 96.5933 160.606 96.2267 160.18 95.76C159.766 95.28 159.446 94.7067 159.22 94.04C158.993 93.36 158.88 92.6 158.88 91.76C158.88 90.9333 158.986 90.1867 159.2 89.52C159.426 88.8533 159.746 88.2867 160.16 87.82C160.573 87.34 161.08 86.9733 161.68 86.72C162.28 86.4533 162.96 86.32 163.72 86.32C164.533 86.32 165.24 86.46 165.84 86.74C166.44 87.02 166.933 87.4 167.32 87.88C167.706 88.36 167.993 88.92 168.18 89.56C168.38 90.1867 168.48 90.86 168.48 91.58V92.42H161.54V92.68C161.54 93.44 161.753 94.0533 162.18 94.52C162.606 94.9733 163.24 95.2 164.08 95.2C164.72 95.2 165.24 95.0667 165.64 94.8C166.053 94.5333 166.42 94.1933 166.74 93.78L168.12 95.32C167.693 95.92 167.106 96.3933 166.36 96.74C165.626 97.0733 164.773 97.24 163.8 97.24ZM163.76 88.24C163.08 88.24 162.54 88.4667 162.14 88.92C161.74 89.3733 161.54 89.96 161.54 90.68V90.84H165.82V90.66C165.82 89.94 165.64 89.36 165.28 88.92C164.933 88.4667 164.426 88.24 163.76 88.24ZM170.732 86.56H173.232V91.22L173.012 93.66H173.092L174.312 91.44L177.572 86.56H179.872V97H177.372V92.34L177.592 89.88H177.512L176.292 92.12L173.032 97H170.732V86.56ZM175.312 85.32C174.472 85.32 173.799 85.1467 173.292 84.8C172.785 84.44 172.385 83.9333 172.092 83.28L171.672 82.34L173.712 81.54L174.372 83.46C174.479 83.5 174.619 83.5333 174.792 83.56C174.965 83.5733 175.139 83.58 175.312 83.58C175.485 83.58 175.659 83.5733 175.832 83.56C176.005 83.5333 176.145 83.5 176.252 83.46L176.912 81.54L178.952 82.34L178.532 83.28C178.239 83.9333 177.839 84.44 177.332 84.8C176.825 85.1467 176.152 85.32 175.312 85.32Z" fill="#8B6BD5"/>
<path d="M100.018 134H88.4021V131.072L93.6581 126.464C94.5541 125.68 95.2101 124.976 95.6261 124.352C96.0421 123.712 96.2501 123.024 96.2501 122.288V121.976C96.2501 121.24 96.0101 120.68 95.5301 120.296C95.0501 119.896 94.4661 119.696 93.7781 119.696C92.9141 119.696 92.2581 119.944 91.8101 120.44C91.3621 120.92 91.0421 121.504 90.8501 122.192L88.1141 121.136C88.2901 120.576 88.5381 120.048 88.8581 119.552C89.1781 119.04 89.5781 118.592 90.0581 118.208C90.5541 117.824 91.1301 117.52 91.7861 117.296C92.4421 117.072 93.1941 116.96 94.0421 116.96C94.9221 116.96 95.7061 117.088 96.3941 117.344C97.0821 117.584 97.6581 117.928 98.1221 118.376C98.6021 118.824 98.9621 119.352 99.2021 119.96C99.4581 120.568 99.5861 121.232 99.5861 121.952C99.5861 122.656 99.4741 123.296 99.2501 123.872C99.0261 124.448 98.7221 125 98.3381 125.528C97.9541 126.04 97.5061 126.536 96.9941 127.016C96.4821 127.48 95.9381 127.952 95.3621 128.432L91.8341 131.336H100.018V134ZM105.361 134L111.193 119.816H105.409V122.888H102.721V117.248H114.337V119.96L108.673 134H105.361ZM128.055 119.984H120.519L120.135 125.6H120.303C120.479 125.248 120.671 124.92 120.879 124.616C121.087 124.312 121.327 124.056 121.599 123.848C121.871 123.64 122.183 123.48 122.535 123.368C122.903 123.24 123.343 123.176 123.855 123.176C124.575 123.176 125.247 123.296 125.871 123.536C126.495 123.776 127.031 124.128 127.479 124.592C127.943 125.04 128.303 125.592 128.559 126.248C128.831 126.904 128.967 127.648 128.967 128.48C128.967 129.328 128.831 130.104 128.559 130.808C128.287 131.512 127.887 132.128 127.359 132.656C126.831 133.168 126.183 133.568 125.415 133.856C124.647 134.144 123.767 134.288 122.775 134.288C122.007 134.288 121.319 134.2 120.711 134.024C120.103 133.864 119.567 133.64 119.103 133.352C118.639 133.064 118.239 132.736 117.903 132.368C117.567 131.984 117.271 131.584 117.015 131.168L119.319 129.392C119.511 129.712 119.711 130.016 119.919 130.304C120.127 130.576 120.367 130.816 120.639 131.024C120.927 131.232 121.239 131.4 121.575 131.528C121.927 131.64 122.335 131.696 122.799 131.696C123.743 131.696 124.455 131.432 124.935 130.904C125.431 130.376 125.679 129.656 125.679 128.744V128.552C125.679 127.688 125.431 127.008 124.935 126.512C124.439 126.016 123.751 125.768 122.871 125.768C122.183 125.768 121.623 125.904 121.191 126.176C120.759 126.432 120.415 126.712 120.159 127.016L117.567 126.656L118.191 117.248H128.055V119.984Z" fill="#8B6BD5"/>
<path d="M80.9081 161.168C79.6295 161.168 78.6261 160.739 77.8981 159.88C77.1701 159.012 76.8061 157.757 76.8061 156.114C76.8061 155.293 76.8995 154.569 77.0861 153.944C77.2728 153.319 77.5435 152.791 77.8981 152.362C78.2528 151.933 78.6821 151.611 79.1861 151.396C79.6995 151.172 80.2735 151.06 80.9081 151.06C81.7575 151.06 82.4668 151.247 83.0361 151.62C83.6148 151.993 84.0675 152.544 84.3941 153.272L83.0641 154C82.8961 153.533 82.6348 153.165 82.2801 152.894C81.9348 152.614 81.4775 152.474 80.9081 152.474C80.1521 152.474 79.5595 152.731 79.1301 153.244C78.7008 153.757 78.4861 154.467 78.4861 155.372V156.856C78.4861 157.761 78.7008 158.471 79.1301 158.984C79.5595 159.497 80.1521 159.754 80.9081 159.754C81.4961 159.754 81.9721 159.605 82.3361 159.306C82.7095 158.998 82.9848 158.606 83.1621 158.13L84.4361 158.9C84.1095 159.609 83.6521 160.165 83.0641 160.566C82.4761 160.967 81.7575 161.168 80.9081 161.168ZM91.5778 161.168C90.8498 161.168 90.2524 161.047 89.7858 160.804C89.3191 160.561 88.9178 160.216 88.5818 159.768L89.5758 158.858C89.7998 159.185 90.0751 159.441 90.4018 159.628C90.7378 159.815 91.1298 159.908 91.5778 159.908C92.1004 159.908 92.4831 159.815 92.7258 159.628C92.9778 159.441 93.1038 159.199 93.1038 158.9V158.732C93.1038 158.433 93.0011 158.209 92.7958 158.06C92.5998 157.901 92.3151 157.822 91.9418 157.822H90.3738V156.702H91.7878C92.1611 156.702 92.4458 156.632 92.6418 156.492C92.8471 156.343 92.9498 156.128 92.9498 155.848V155.694C92.9498 155.423 92.8378 155.209 92.6138 155.05C92.3898 154.891 92.0351 154.812 91.5498 154.812C91.1111 154.812 90.7378 154.901 90.4298 155.078C90.1218 155.255 89.8744 155.493 89.6878 155.792L88.7358 154.966C89.0158 154.537 89.3891 154.196 89.8558 153.944C90.3318 153.683 90.9291 153.552 91.6478 153.552C92.6184 153.552 93.3371 153.734 93.8038 154.098C94.2798 154.453 94.5178 154.929 94.5178 155.526C94.5178 155.993 94.3964 156.357 94.1538 156.618C93.9111 156.87 93.5471 157.043 93.0618 157.136V157.206C93.5938 157.271 93.9951 157.449 94.2658 157.738C94.5458 158.027 94.6858 158.401 94.6858 158.858C94.6858 159.577 94.4058 160.141 93.8458 160.552C93.2951 160.963 92.5391 161.168 91.5778 161.168ZM101.794 161C101.393 161 101.085 160.888 100.87 160.664C100.655 160.431 100.525 160.137 100.478 159.782H100.408C100.268 160.239 100.011 160.585 99.6382 160.818C99.2648 161.051 98.8122 161.168 98.2802 161.168C97.5242 161.168 96.9408 160.972 96.5302 160.58C96.1288 160.188 95.9282 159.661 95.9282 158.998C95.9282 158.27 96.1895 157.724 96.7122 157.36C97.2442 156.996 98.0188 156.814 99.0362 156.814H100.352V156.198C100.352 155.75 100.231 155.405 99.9882 155.162C99.7455 154.919 99.3675 154.798 98.8542 154.798C98.4248 154.798 98.0748 154.891 97.8042 155.078C97.5335 155.265 97.3048 155.503 97.1182 155.792L96.2082 154.966C96.4508 154.555 96.7915 154.219 97.2302 153.958C97.6688 153.687 98.2428 153.552 98.9522 153.552C99.8948 153.552 100.618 153.771 101.122 154.21C101.626 154.649 101.878 155.279 101.878 156.1V159.754H102.648V161H101.794ZM98.7142 160.006C99.1902 160.006 99.5822 159.903 99.8902 159.698C100.198 159.483 100.352 159.199 100.352 158.844V157.794H99.0642C98.0095 157.794 97.4822 158.121 97.4822 158.774V159.026C97.4822 159.353 97.5895 159.6 97.8042 159.768C98.0282 159.927 98.3315 160.006 98.7142 160.006ZM104.144 153.72H110.122V161H108.596V154.966H105.67V161H104.144V153.72ZM116.772 153.72H118.242L115.176 162.442C115.092 162.685 114.994 162.89 114.882 163.058C114.779 163.235 114.653 163.375 114.504 163.478C114.364 163.59 114.191 163.669 113.986 163.716C113.781 163.772 113.538 163.8 113.258 163.8H112.376V162.554H113.608L114.028 161.322L111.382 153.72H112.908L114.364 158.004L114.784 159.586H114.854L115.316 158.004L116.772 153.72ZM122.229 161.168C121.707 161.168 121.24 161.079 120.829 160.902C120.419 160.725 120.073 160.473 119.793 160.146C119.513 159.81 119.299 159.409 119.149 158.942C119 158.466 118.925 157.939 118.925 157.36C118.925 156.781 119 156.259 119.149 155.792C119.299 155.316 119.513 154.915 119.793 154.588C120.073 154.252 120.419 153.995 120.829 153.818C121.24 153.641 121.707 153.552 122.229 153.552C122.957 153.552 123.555 153.715 124.021 154.042C124.488 154.369 124.829 154.803 125.043 155.344L123.783 155.932C123.681 155.596 123.499 155.33 123.237 155.134C122.985 154.929 122.649 154.826 122.229 154.826C121.669 154.826 121.245 155.003 120.955 155.358C120.675 155.703 120.535 156.156 120.535 156.716V158.018C120.535 158.578 120.675 159.035 120.955 159.39C121.245 159.735 121.669 159.908 122.229 159.908C122.677 159.908 123.032 159.801 123.293 159.586C123.564 159.362 123.779 159.068 123.937 158.704L125.099 159.32C124.857 159.917 124.493 160.375 124.007 160.692C123.522 161.009 122.929 161.168 122.229 161.168ZM126.552 153.72H128.078V156.66H129.366L130.57 154.63C130.775 154.285 130.981 154.047 131.186 153.916C131.391 153.785 131.653 153.72 131.97 153.72H132.712V154.966H131.9L130.976 156.506C130.836 156.749 130.71 156.917 130.598 157.01C130.495 157.103 130.355 157.173 130.178 157.22V157.276C130.365 157.313 130.528 157.383 130.668 157.486C130.808 157.579 130.943 157.747 131.074 157.99L132.054 159.754H132.852V161H131.984C131.676 161 131.41 160.93 131.186 160.79C130.971 160.65 130.766 160.403 130.57 160.048L129.366 157.892H128.078V161H126.552V153.72ZM139.706 161C139.305 161 138.997 160.888 138.782 160.664C138.568 160.431 138.437 160.137 138.39 159.782H138.32C138.18 160.239 137.924 160.585 137.55 160.818C137.177 161.051 136.724 161.168 136.192 161.168C135.436 161.168 134.853 160.972 134.442 160.58C134.041 160.188 133.84 159.661 133.84 158.998C133.84 158.27 134.102 157.724 134.624 157.36C135.156 156.996 135.931 156.814 136.948 156.814H138.264V156.198C138.264 155.75 138.143 155.405 137.9 155.162C137.658 154.919 137.28 154.798 136.766 154.798C136.337 154.798 135.987 154.891 135.716 155.078C135.446 155.265 135.217 155.503 135.03 155.792L134.12 154.966C134.363 154.555 134.704 154.219 135.142 153.958C135.581 153.687 136.155 153.552 136.864 153.552C137.807 153.552 138.53 153.771 139.034 154.21C139.538 154.649 139.79 155.279 139.79 156.1V159.754H140.56V161H139.706ZM136.626 160.006C137.102 160.006 137.494 159.903 137.802 159.698C138.11 159.483 138.264 159.199 138.264 158.844V157.794H136.976C135.922 157.794 135.394 158.121 135.394 158.774V159.026C135.394 159.353 135.502 159.6 135.716 159.768C135.94 159.927 136.244 160.006 136.626 160.006Z" fill="#8B6BD5"/>
<rect x="1.5" y="1" width="214" height="214" rx="107" stroke="#8B6BD5" stroke-width="2"/>
</svg>
