<svg width="161" height="160" viewBox="0 0 161 160" fill="none" xmlns="http://www.w3.org/2000/svg">
<rect x="0.5" width="160" height="160" rx="80" fill="#1C2541"/>
<path opacity="0.5" d="M34.3211 49.128H36.1771L36.4971 48.312L32.5291 39.832H34.7691L36.5931 43.784L37.4891 45.912H37.5371L38.3211 43.752L39.8891 39.832H41.9851L38.0491 49.48C37.9317 49.768 37.8037 50.008 37.6651 50.2C37.5264 50.392 37.3664 50.552 37.1851 50.68C37.0037 50.7973 36.7904 50.8827 36.5451 50.936C36.3104 50.9787 36.0331 51 35.7131 51H34.3211V49.128ZM42.6137 42.648H49.6857V51H47.6377V44.28H44.6617V51H42.6137V42.648ZM55.3632 51.192C54.7659 51.192 54.2272 51.0907 53.7472 50.888C53.2779 50.6853 52.8725 50.392 52.5312 50.008C52.2005 49.624 51.9445 49.1653 51.7632 48.632C51.5819 48.088 51.4912 47.48 51.4912 46.808C51.4912 46.136 51.5819 45.5333 51.7632 45C51.9445 44.4667 52.2005 44.0133 52.5312 43.64C52.8725 43.256 53.2779 42.9627 53.7472 42.76C54.2272 42.5573 54.7659 42.456 55.3632 42.456C55.9605 42.456 56.4992 42.5573 56.9792 42.76C57.4592 42.9627 57.8645 43.256 58.1952 43.64C58.5365 44.0133 58.7979 44.4667 58.9792 45C59.1605 45.5333 59.2512 46.136 59.2512 46.808C59.2512 47.48 59.1605 48.088 58.9792 48.632C58.7979 49.1653 58.5365 49.624 58.1952 50.008C57.8645 50.392 57.4592 50.6853 56.9792 50.888C56.4992 51.0907 55.9605 51.192 55.3632 51.192ZM55.3632 49.544C55.9072 49.544 56.3339 49.3787 56.6432 49.048C56.9525 48.7173 57.1072 48.232 57.1072 47.592V46.04C57.1072 45.4107 56.9525 44.9307 56.6432 44.6C56.3339 44.2693 55.9072 44.104 55.3632 44.104C54.8299 44.104 54.4085 44.2693 54.0992 44.6C53.7899 44.9307 53.6352 45.4107 53.6352 46.04V47.592C53.6352 48.232 53.7899 48.7173 54.0992 49.048C54.4085 49.3787 54.8299 49.544 55.3632 49.544ZM61.0668 42.648H63.4188L65.6268 46.328H65.6908L67.8668 42.648H70.1548V51H68.1708V45.176H68.1068L67.5308 46.264L65.6108 49.432L63.6908 46.264L63.1148 45.176H63.0508V51H61.0668V42.648ZM72.5199 42.648H74.5199V46.376L74.3439 48.328H74.4079L75.3839 46.552L77.9919 42.648H79.8319V51H77.8319V47.272L78.0079 45.304H77.9439L76.9679 47.096L74.3599 51H72.5199V42.648ZM82.2074 42.648H84.2554V45.928H87.4714V42.648H89.5194V51H87.4714V47.56H84.2554V51H82.2074V42.648ZM98.0389 51C97.5909 51 97.2336 50.872 96.9669 50.616C96.7109 50.3493 96.5509 49.9973 96.4869 49.56H96.3909C96.2523 50.104 95.9696 50.5147 95.5429 50.792C95.1163 51.0587 94.5883 51.192 93.9589 51.192C93.1056 51.192 92.4496 50.968 91.9909 50.52C91.5323 50.072 91.3029 49.4747 91.3029 48.728C91.3029 47.864 91.6123 47.224 92.2309 46.808C92.8496 46.3813 93.7296 46.168 94.8709 46.168H96.2949V45.56C96.2949 45.0907 96.1723 44.728 95.9269 44.472C95.6816 44.216 95.2869 44.088 94.7429 44.088C94.2629 44.088 93.8736 44.1947 93.5749 44.408C93.2869 44.6107 93.0416 44.856 92.8389 45.144L91.6229 44.056C91.9323 43.576 92.3429 43.192 92.8549 42.904C93.3669 42.6053 94.0443 42.456 94.8869 42.456C96.0176 42.456 96.8763 42.712 97.4629 43.224C98.0496 43.736 98.3429 44.472 98.3429 45.432V49.368H99.1749V51H98.0389ZM94.6469 49.704C95.1056 49.704 95.4949 49.6027 95.8149 49.4C96.1349 49.1973 96.2949 48.8987 96.2949 48.504V47.4H94.9829C93.9163 47.4 93.3829 47.7413 93.3829 48.424V48.696C93.3829 49.0373 93.4896 49.2933 93.7029 49.464C93.9269 49.624 94.2416 49.704 94.6469 49.704ZM100.832 42.648H102.88V45.928H106.096V42.648H108.144V51H106.096V47.56H102.88V51H100.832V42.648ZM110.52 42.648H112.52V46.376L112.344 48.328H112.408L113.384 46.552L115.992 42.648H117.832V51H115.832V47.272L116.008 45.304H115.944L114.968 47.096L112.36 51H110.52V42.648ZM120.207 42.648H122.207V46.376L122.031 48.328H122.095L123.071 46.552L125.679 42.648H127.519V51H125.519V47.272L125.695 45.304H125.631L124.655 47.096L122.047 51H120.207V42.648ZM123.871 41.656C123.199 41.656 122.661 41.5173 122.255 41.24C121.85 40.952 121.53 40.5467 121.295 40.024L120.959 39.272L122.591 38.632L123.119 40.168C123.205 40.2 123.317 40.2267 123.455 40.248C123.594 40.2587 123.733 40.264 123.871 40.264C124.01 40.264 124.149 40.2587 124.287 40.248C124.426 40.2267 124.538 40.2 124.623 40.168L125.151 38.632L126.783 39.272L126.447 40.024C126.213 40.5467 125.893 40.952 125.487 41.24C125.082 41.5173 124.543 41.656 123.871 41.656ZM50.6059 62.648H55.1979C55.9445 62.648 56.5152 62.84 56.9099 63.224C57.3045 63.5973 57.5019 64.104 57.5019 64.744C57.5019 65.8 56.9259 66.408 55.7739 66.568V66.632C56.4565 66.696 56.9685 66.8933 57.3099 67.224C57.6512 67.5547 57.8219 67.9973 57.8219 68.552C57.8219 69.2773 57.5979 69.8693 57.1499 70.328C56.7019 70.776 56.0779 71 55.2779 71H50.6059V62.648ZM54.8619 69.512C55.1392 69.512 55.3525 69.4427 55.5019 69.304C55.6512 69.1547 55.7259 68.9467 55.7259 68.68V68.232C55.7259 67.9653 55.6512 67.7627 55.5019 67.624C55.3525 67.4747 55.1392 67.4 54.8619 67.4H52.6059V69.512H54.8619ZM54.6219 66.104C54.8672 66.104 55.0592 66.0347 55.1979 65.896C55.3472 65.7573 55.4219 65.5653 55.4219 65.32V64.92C55.4219 64.6747 55.3472 64.4827 55.1979 64.344C55.0592 64.2053 54.8672 64.136 54.6219 64.136H52.6059V66.104H54.6219ZM63.5278 62.648H65.8798L68.0878 66.328H68.1518L70.3278 62.648H72.6158V71H70.6318V65.176H70.5677L69.9918 66.264L68.0718 69.432L66.1518 66.264L65.5758 65.176H65.5118V71H63.5278V62.648ZM78.3569 71.192C77.7382 71.192 77.1835 71.0907 76.6929 70.888C76.2129 70.6747 75.8022 70.3813 75.4609 70.008C75.1302 69.624 74.8742 69.1653 74.6929 68.632C74.5115 68.088 74.4209 67.48 74.4209 66.808C74.4209 66.1467 74.5062 65.5493 74.6769 65.016C74.8582 64.4827 75.1142 64.0293 75.4449 63.656C75.7755 63.272 76.1809 62.9787 76.6609 62.776C77.1409 62.5627 77.6849 62.456 78.2929 62.456C78.9435 62.456 79.5089 62.568 79.9889 62.792C80.4689 63.016 80.8635 63.32 81.1729 63.704C81.4822 64.088 81.7115 64.536 81.8609 65.048C82.0209 65.5493 82.1009 66.088 82.1009 66.664V67.336H76.5489V67.544C76.5489 68.152 76.7195 68.6427 77.0609 69.016C77.4022 69.3787 77.9089 69.56 78.5809 69.56C79.0929 69.56 79.5089 69.4533 79.8289 69.24C80.1595 69.0267 80.4529 68.7547 80.7089 68.424L81.8129 69.656C81.4715 70.136 81.0022 70.5147 80.4049 70.792C79.8182 71.0587 79.1355 71.192 78.3569 71.192ZM78.3249 63.992C77.7809 63.992 77.3489 64.1733 77.0289 64.536C76.7089 64.8987 76.5489 65.368 76.5489 65.944V66.072H79.9729V65.928C79.9729 65.352 79.8289 64.888 79.5409 64.536C79.2635 64.1733 78.8582 63.992 78.3249 63.992ZM82.8628 69.368H83.9188C84.2281 68.92 84.4574 68.3547 84.6068 67.672C84.7561 66.9893 84.8307 66.1093 84.8307 65.032V62.648H91.2468V69.368H92.6708V73.24H90.8148V71H84.7188V73.24H82.8628V69.368ZM89.1988 69.368V64.28H86.7828V65.128C86.7828 66.2693 86.7134 67.176 86.5748 67.848C86.4361 68.5093 86.2654 69.016 86.0628 69.368H89.1988ZM94.1371 62.648H96.1371V66.376L95.9611 68.328H96.0251L97.0011 66.552L99.6091 62.648H101.449V71H99.4491V67.272L99.6251 65.304H99.5611L98.5851 67.096L95.9771 71H94.1371V62.648ZM109.969 71C109.521 71 109.163 70.872 108.897 70.616C108.641 70.3493 108.481 69.9973 108.417 69.56H108.321C108.182 70.104 107.899 70.5147 107.473 70.792C107.046 71.0587 106.518 71.192 105.889 71.192C105.035 71.192 104.379 70.968 103.921 70.52C103.462 70.072 103.233 69.4747 103.233 68.728C103.233 67.864 103.542 67.224 104.161 66.808C104.779 66.3813 105.659 66.168 106.801 66.168H108.225V65.56C108.225 65.0907 108.102 64.728 107.857 64.472C107.611 64.216 107.217 64.088 106.673 64.088C106.193 64.088 105.803 64.1947 105.505 64.408C105.217 64.6107 104.971 64.856 104.769 65.144L103.553 64.056C103.862 63.576 104.273 63.192 104.785 62.904C105.297 62.6053 105.974 62.456 106.817 62.456C107.947 62.456 108.806 62.712 109.393 63.224C109.979 63.736 110.273 64.472 110.273 65.432V69.368H111.105V71H109.969ZM106.577 69.704C107.035 69.704 107.425 69.6027 107.745 69.4C108.065 69.1973 108.225 68.8987 108.225 68.504V67.4H106.913C105.846 67.4 105.313 67.7413 105.313 68.424V68.696C105.313 69.0373 105.419 69.2933 105.633 69.464C105.857 69.624 106.171 69.704 106.577 69.704Z" fill="white"/>
<path d="M79.2134 106H67.5974V103.072L72.8534 98.464C73.7494 97.68 74.4054 96.976 74.8214 96.352C75.2374 95.712 75.4454 95.024 75.4454 94.288V93.976C75.4454 93.24 75.2054 92.68 74.7254 92.296C74.2454 91.896 73.6614 91.696 72.9734 91.696C72.1094 91.696 71.4534 91.944 71.0054 92.44C70.5574 92.92 70.2374 93.504 70.0454 94.192L67.3094 93.136C67.4854 92.576 67.7334 92.048 68.0534 91.552C68.3734 91.04 68.7734 90.592 69.2534 90.208C69.7494 89.824 70.3254 89.52 70.9814 89.296C71.6374 89.072 72.3894 88.96 73.2374 88.96C74.1174 88.96 74.9014 89.088 75.5894 89.344C76.2774 89.584 76.8534 89.928 77.3174 90.376C77.7974 90.824 78.1574 91.352 78.3974 91.96C78.6534 92.568 78.7814 93.232 78.7814 93.952C78.7814 94.656 78.6694 95.296 78.4454 95.872C78.2214 96.448 77.9174 97 77.5334 97.528C77.1494 98.04 76.7014 98.536 76.1894 99.016C75.6774 99.48 75.1334 99.952 74.5574 100.432L71.0294 103.336H79.2134V106ZM92.86 91.984H85.324L84.94 97.6H85.108C85.284 97.248 85.476 96.92 85.684 96.616C85.892 96.312 86.132 96.056 86.404 95.848C86.676 95.64 86.988 95.48 87.34 95.368C87.708 95.24 88.148 95.176 88.66 95.176C89.38 95.176 90.052 95.296 90.676 95.536C91.3 95.776 91.836 96.128 92.284 96.592C92.748 97.04 93.108 97.592 93.364 98.248C93.636 98.904 93.772 99.648 93.772 100.48C93.772 101.328 93.636 102.104 93.364 102.808C93.092 103.512 92.692 104.128 92.164 104.656C91.636 105.168 90.988 105.568 90.22 105.856C89.452 106.144 88.572 106.288 87.58 106.288C86.812 106.288 86.124 106.2 85.516 106.024C84.908 105.864 84.372 105.64 83.908 105.352C83.444 105.064 83.044 104.736 82.708 104.368C82.372 103.984 82.076 103.584 81.82 103.168L84.124 101.392C84.316 101.712 84.516 102.016 84.724 102.304C84.932 102.576 85.172 102.816 85.444 103.024C85.732 103.232 86.044 103.4 86.38 103.528C86.732 103.64 87.14 103.696 87.604 103.696C88.548 103.696 89.26 103.432 89.74 102.904C90.236 102.376 90.484 101.656 90.484 100.744V100.552C90.484 99.688 90.236 99.008 89.74 98.512C89.244 98.016 88.556 97.768 87.676 97.768C86.988 97.768 86.428 97.904 85.996 98.176C85.564 98.432 85.22 98.712 84.964 99.016L82.372 98.656L82.996 89.248H92.86V91.984Z" fill="white"/>
<path d="M70.0119 115.72H71.5379V116.924H71.6079C71.7666 116.485 72.0233 116.149 72.3779 115.916C72.7419 115.673 73.1666 115.552 73.6519 115.552C74.5759 115.552 75.2899 115.888 75.7939 116.56C76.2979 117.223 76.5499 118.156 76.5499 119.36C76.5499 120.564 76.2979 121.502 75.7939 122.174C75.2899 122.837 74.5759 123.168 73.6519 123.168C73.1666 123.168 72.7419 123.047 72.3779 122.804C72.0233 122.561 71.7666 122.225 71.6079 121.796H71.5379V125.8H70.0119V115.72ZM73.1899 121.852C73.7219 121.852 74.1466 121.684 74.4639 121.348C74.7813 121.003 74.9399 120.55 74.9399 119.99V118.73C74.9399 118.17 74.7813 117.722 74.4639 117.386C74.1466 117.041 73.7219 116.868 73.1899 116.868C72.7233 116.868 72.3313 116.985 72.0139 117.218C71.6966 117.442 71.5379 117.741 71.5379 118.114V120.606C71.5379 120.979 71.6966 121.283 72.0139 121.516C72.3313 121.74 72.7233 121.852 73.1899 121.852ZM83.6311 123C83.2297 123 82.9217 122.888 82.7071 122.664C82.4924 122.431 82.3617 122.137 82.3151 121.782H82.2451C82.1051 122.239 81.8484 122.585 81.4751 122.818C81.1017 123.051 80.6491 123.168 80.1171 123.168C79.3611 123.168 78.7777 122.972 78.3671 122.58C77.9657 122.188 77.7651 121.661 77.7651 120.998C77.7651 120.27 78.0264 119.724 78.5491 119.36C79.0811 118.996 79.8557 118.814 80.8731 118.814H82.1891V118.198C82.1891 117.75 82.0677 117.405 81.8251 117.162C81.5824 116.919 81.2044 116.798 80.6911 116.798C80.2617 116.798 79.9117 116.891 79.6411 117.078C79.3704 117.265 79.1417 117.503 78.9551 117.792L78.0451 116.966C78.2877 116.555 78.6284 116.219 79.0671 115.958C79.5057 115.687 80.0797 115.552 80.7891 115.552C81.7317 115.552 82.4551 115.771 82.9591 116.21C83.4631 116.649 83.7151 117.279 83.7151 118.1V121.754H84.4851V123H83.6311ZM80.5511 122.006C81.0271 122.006 81.4191 121.903 81.7271 121.698C82.0351 121.483 82.1891 121.199 82.1891 120.844V119.794H80.9011C79.8464 119.794 79.3191 120.121 79.3191 120.774V121.026C79.3191 121.353 79.4264 121.6 79.6411 121.768C79.8651 121.927 80.1684 122.006 80.5511 122.006ZM88.2487 123.168C87.5207 123.168 86.9233 123.047 86.4567 122.804C85.99 122.561 85.5887 122.216 85.2527 121.768L86.2467 120.858C86.4707 121.185 86.746 121.441 87.0727 121.628C87.4087 121.815 87.8007 121.908 88.2487 121.908C88.7713 121.908 89.154 121.815 89.3967 121.628C89.6487 121.441 89.7747 121.199 89.7747 120.9V120.732C89.7747 120.433 89.672 120.209 89.4667 120.06C89.2707 119.901 88.986 119.822 88.6127 119.822H87.0447V118.702H88.4587C88.832 118.702 89.1167 118.632 89.3127 118.492C89.518 118.343 89.6207 118.128 89.6207 117.848V117.694C89.6207 117.423 89.5087 117.209 89.2847 117.05C89.0607 116.891 88.706 116.812 88.2207 116.812C87.782 116.812 87.4087 116.901 87.1007 117.078C86.7927 117.255 86.5453 117.493 86.3587 117.792L85.4067 116.966C85.6867 116.537 86.06 116.196 86.5267 115.944C87.0027 115.683 87.6 115.552 88.3187 115.552C89.2893 115.552 90.008 115.734 90.4747 116.098C90.9507 116.453 91.1887 116.929 91.1887 117.526C91.1887 117.993 91.0673 118.357 90.8247 118.618C90.582 118.87 90.218 119.043 89.7327 119.136V119.206C90.2647 119.271 90.666 119.449 90.9367 119.738C91.2167 120.027 91.3567 120.401 91.3567 120.858C91.3567 121.577 91.0767 122.141 90.5167 122.552C89.966 122.963 89.21 123.168 88.2487 123.168Z" fill="white"/>
</svg>
