<svg width="18" height="18" viewBox="0 0 18 18" fill="none" xmlns="http://www.w3.org/2000/svg">
<path d="M16.0697 3.48232C15.9829 3.28197 15.8391 3.1116 15.6561 2.99247C15.4732 2.87335 15.2592 2.81076 15.0409 2.8125H2.95899C2.74104 2.81251 2.52778 2.87582 2.34514 2.99475C2.16249 3.11367 2.01832 3.28309 1.93015 3.48242C1.84198 3.68174 1.81361 3.90238 1.84848 4.11752C1.88335 4.33267 1.97996 4.53305 2.12657 4.69432L6.74993 9.77996V15.2615C6.74979 15.4651 6.80497 15.665 6.90957 15.8398C7.01418 16.0146 7.16429 16.1576 7.34387 16.2537C7.52345 16.3498 7.72576 16.3954 7.92919 16.3855C8.13263 16.3756 8.32956 16.3106 8.49895 16.1975L10.7489 14.6976C10.9032 14.595 11.0297 14.4558 11.1171 14.2925C11.2045 14.1292 11.2501 13.9467 11.2499 13.7615V9.78003L15.8733 4.69426C16.0215 4.53387 16.1191 4.33339 16.154 4.11786C16.1889 3.90233 16.1596 3.68129 16.0697 3.48232V3.48232Z" fill="#1C2541" fill-opacity="0.3"/>
</svg>
