<svg width="18" height="18" viewBox="0 0 18 18" fill="none" xmlns="http://www.w3.org/2000/svg">
<path d="M16.3406 10.3499L15.4662 9.18405C15.468 9.12267 15.4688 9.06121 15.4688 9.00006C15.4688 8.93889 15.468 8.87736 15.4662 8.81587L16.3402 7.65012C16.4471 7.5075 16.5187 7.34155 16.549 7.1659C16.5793 6.99026 16.5676 6.80993 16.5146 6.63972C16.3759 6.19704 16.1981 5.76751 15.9836 5.35617C15.9007 5.19815 15.7814 5.06206 15.6357 4.95911C15.4899 4.85615 15.3218 4.78928 15.1451 4.76398L13.7025 4.55791C13.6603 4.51328 13.6176 4.46929 13.5742 4.42594C13.531 4.38268 13.4869 4.33988 13.4421 4.29754L13.2359 2.8551C13.2106 2.67867 13.1438 2.51075 13.041 2.36513C12.9383 2.21951 12.8024 2.10034 12.6447 2.01739C12.2335 1.80247 11.8042 1.62443 11.3616 1.48534C11.1912 1.43224 11.0107 1.42034 10.8348 1.4506C10.6589 1.48087 10.4928 1.55244 10.3499 1.65944L9.18416 2.53382C9.06128 2.53042 8.93885 2.53042 8.81598 2.53382L7.65012 1.65969C7.50746 1.55285 7.34151 1.48135 7.16588 1.45105C6.99024 1.42076 6.80993 1.43254 6.63972 1.48542C6.19708 1.62417 5.76761 1.80188 5.35635 2.01647C5.19829 2.09936 5.06218 2.21859 4.9592 2.36436C4.85622 2.51013 4.78932 2.67826 4.76401 2.85493L4.55795 4.29757C4.51321 4.33987 4.46925 4.38264 4.42604 4.42587C4.38272 4.46917 4.3399 4.51318 4.29761 4.55791L2.85514 4.76418C2.67872 4.78948 2.51082 4.85626 2.36521 4.95903C2.2196 5.0618 2.10044 5.19763 2.0175 5.35538C1.80258 5.76651 1.62452 6.19588 1.48542 6.63845C1.43231 6.80882 1.42039 6.98936 1.45066 7.16523C1.48093 7.3411 1.55251 7.50727 1.65952 7.65009L2.53389 8.81594C2.53217 8.87732 2.53132 8.93878 2.53132 8.99993C2.53132 9.06111 2.53217 9.12263 2.53392 9.18412L1.65989 10.3499C1.55299 10.4925 1.48144 10.6584 1.45112 10.8341C1.4208 11.0097 1.43258 11.1901 1.48549 11.3603C1.62427 11.803 1.80198 12.2325 2.01654 12.6438C2.09945 12.8018 2.21869 12.9379 2.36446 13.0409C2.51022 13.1438 2.67835 13.2107 2.855 13.236L4.29764 13.4421C4.3398 13.4867 4.38256 13.5307 4.42591 13.5741C4.46917 13.6173 4.51319 13.6601 4.55798 13.7025L4.76425 15.1449C4.78955 15.3213 4.85632 15.4892 4.95909 15.6349C5.06186 15.7805 5.1977 15.8997 5.35545 15.9826C5.76658 16.1975 6.19595 16.3756 6.63852 16.5147C6.74688 16.5486 6.8598 16.5659 6.97336 16.5659C7.21739 16.5659 7.45485 16.4868 7.65019 16.3406L8.81598 15.4662C8.93885 15.4696 9.06128 15.4696 9.18416 15.4662L10.35 16.3403C10.4927 16.4472 10.6586 16.5186 10.8343 16.5489C11.0099 16.5792 11.1902 16.5675 11.3604 16.5146C11.8031 16.3758 12.2325 16.1981 12.6438 15.9835C12.8018 15.9006 12.938 15.7814 13.0409 15.6356C13.1439 15.4899 13.2108 15.3217 13.2361 15.1451L13.4422 13.7024C13.4869 13.6601 13.5309 13.6174 13.5741 13.5741C13.6174 13.5308 13.6602 13.4868 13.7025 13.4421L15.145 13.2358C15.3214 13.2105 15.4893 13.1437 15.6349 13.041C15.7805 12.9382 15.8997 12.8024 15.9826 12.6446C16.1976 12.2335 16.3756 11.8041 16.5147 11.3615C16.5678 11.1912 16.5797 11.0106 16.5495 10.8348C16.5192 10.6589 16.4476 10.4927 16.3406 10.3499V10.3499ZM12.0938 9C12.0938 9.61188 11.9124 10.21 11.5724 10.7188C11.2325 11.2276 10.7493 11.6241 10.184 11.8582C9.61868 12.0924 8.99663 12.1537 8.39651 12.0343C7.79638 11.9149 7.24512 11.6203 6.81245 11.1876C6.37979 10.7549 6.08514 10.2037 5.96576 9.60356C5.84639 9.00343 5.90766 8.38138 6.14181 7.81607C6.37597 7.25076 6.77251 6.76758 7.28127 6.42764C7.79004 6.08769 8.38818 5.90625 9.00007 5.90625C9.8203 5.90717 10.6067 6.23342 11.1867 6.81341C11.7666 7.3934 12.0929 8.17977 12.0938 9Z" fill="#1C2541" fill-opacity="0.3"/>
</svg>
