<svg width="18" height="18" viewBox="0 0 18 18" fill="none" xmlns="http://www.w3.org/2000/svg">
<path d="M16.1471 16.1478C16.0416 16.2533 15.8985 16.3126 15.7493 16.3126C15.6001 16.3126 15.457 16.2533 15.3515 16.1478L12.3124 13.1087C11.0341 14.1819 9.39095 14.7201 7.72547 14.6113C6.06 14.5025 4.50083 13.7549 3.37312 12.5245C2.24541 11.2941 1.63621 9.6758 1.67256 8.00717C1.70891 6.33854 2.38801 4.74835 3.56825 3.56823C4.74848 2.3881 6.33872 1.70913 8.00735 1.67292C9.67599 1.63672 11.2942 2.24606 12.5245 3.37388C13.7548 4.5017 14.5023 6.06093 14.611 7.72641C14.7197 9.39189 14.1812 11.035 13.108 12.3132L16.1471 15.3523C16.2526 15.4578 16.3118 15.6009 16.3118 15.7501C16.3118 15.8992 16.2526 16.0423 16.1471 16.1478ZM8.15596 13.5C9.21285 13.5 10.246 13.1866 11.1248 12.5994C12.0036 12.0122 12.6885 11.1777 13.0929 10.2012C13.4974 9.22477 13.6032 8.15032 13.397 7.11374C13.1908 6.07715 12.6819 5.12498 11.9346 4.37765C11.1872 3.63031 10.2351 3.12137 9.19847 2.91518C8.16189 2.70899 7.08744 2.81481 6.11099 3.21927C5.13455 3.62372 4.29997 4.30865 3.71279 5.18742C3.12561 6.0662 2.81221 7.09936 2.81221 8.15625C2.81381 9.57301 3.37733 10.9313 4.37913 11.9331C5.38093 12.9349 6.7392 13.4984 8.15596 13.5Z" fill="#1C2541" fill-opacity="0.3"/>
</svg>
