<svg width="28" height="28" viewBox="0 0 28 28" fill="none" xmlns="http://www.w3.org/2000/svg">
<path d="M25.2936 3.47111C25.0525 3.26292 24.759 3.12465 24.4449 3.0713C24.1309 3.01794 23.8082 3.05152 23.5119 3.1684L3.32592 11.0986C2.97408 11.2369 2.67645 11.4853 2.47757 11.8068C2.2787 12.1283 2.18927 12.5055 2.22267 12.882C2.25606 13.2586 2.41049 13.6142 2.66285 13.8957C2.9152 14.1771 3.25191 14.3693 3.62259 14.4434L8.74997 15.4689V21.8732C8.74968 22.2195 8.85214 22.558 9.04438 22.846C9.23662 23.134 9.51 23.3584 9.82989 23.4909C10.1498 23.6234 10.5018 23.658 10.8414 23.5903C11.1809 23.5226 11.4928 23.3557 11.7374 23.1106L14.5749 20.2731L18.8817 24.0631C19.1988 24.3446 19.608 24.5004 20.032 24.5009C20.2163 24.5007 20.3995 24.4717 20.5749 24.4148C20.8641 24.3231 21.1242 24.1571 21.3293 23.9335C21.5343 23.7098 21.6771 23.4363 21.7435 23.1402L25.8575 5.18821C25.9291 4.87779 25.9144 4.55368 25.815 4.251C25.7156 3.94833 25.5353 3.67862 25.2936 3.47111V3.47111ZM20.0377 22.7493L11.0261 14.819L24.0028 5.44696L20.0377 22.7493Z" fill="#1C2541"/>
</svg>
