<svg width="28" height="28" viewBox="0 0 28 28" fill="none" xmlns="http://www.w3.org/2000/svg">
<path d="M26.8688 8.49367L23.62 11.7424C23.5327 14.9533 22.3072 18.0848 20.227 20.3839C17.7907 23.0766 14.4272 24.5 10.5 24.5C6.68151 24.5 4.71319 22.5756 4.63126 22.4937C4.51934 22.3817 4.43988 22.2415 4.40135 22.088C4.36281 21.9345 4.36663 21.7734 4.41242 21.6219C4.4582 21.4704 4.54423 21.3341 4.66133 21.2276C4.77844 21.1211 4.92224 21.0484 5.07741 21.0172C6.01127 20.828 8.32929 20.0913 9.3157 18.7634C8.2581 18.1536 7.31898 17.3583 6.5433 16.4156C3.79888 13.083 3.85704 8.89496 4.38912 5.96843C4.41916 5.80324 4.4961 5.65017 4.61075 5.5275C4.7254 5.40483 4.87292 5.31774 5.03571 5.27661C5.19851 5.23549 5.3697 5.24207 5.52885 5.29558C5.688 5.34908 5.8284 5.44725 5.93329 5.57836C5.96337 5.61574 8.83921 9.13903 13.125 10.2901V9.62529C13.1342 8.22421 13.6995 6.88413 14.6964 5.89966C15.6934 4.91519 17.0405 4.3669 18.4416 4.37534C19.3517 4.38794 20.2429 4.63639 21.0283 5.0964C21.8137 5.55642 22.4664 6.21228 22.9225 6.99991L26.25 6.99997C26.4231 6.99997 26.5923 7.05128 26.7361 7.14742C26.88 7.24357 26.9922 7.38022 27.0584 7.5401C27.1247 7.69999 27.142 7.87592 27.1082 8.04565C27.0745 8.21538 26.9911 8.3713 26.8688 8.49367Z" fill="#1C2541"/>
</svg>
